<svg width="673" height="263" viewBox="0 0 673 263" fill="none" xmlns="http://www.w3.org/2000/svg">
<path d="M133.294 0C136.726 7.23432e-06 140.114 0.771129 143.203 2.25391C146.292 3.73669 149.002 5.89343 151.131 8.5625C206.894 78.4781 230.132 118.795 263.402 201.597C266.706 209.823 267.461 218.84 265.568 227.493C263.676 236.147 259.223 244.045 252.778 250.177C246.334 256.308 238.191 260.395 229.391 261.915C220.591 263.435 211.533 262.319 203.376 258.71L142.639 231.826C136.409 229.069 130.179 229.069 123.949 231.826L63.2119 258.71C55.0551 262.319 45.9973 263.435 37.1973 261.915C28.3972 260.395 20.254 256.308 13.8096 250.177C7.36515 244.045 2.91216 236.147 1.01953 227.493C-0.873011 218.84 -0.119394 209.823 3.18457 201.597C36.455 118.795 59.6929 78.4778 115.456 8.5625C117.585 5.89338 120.296 3.73671 123.385 2.25391C126.474 0.771115 129.862 9.34258e-06 133.294 0ZM463.362 25.1318C464.917 25.1318 466.177 26.392 466.177 27.9463V251.598C466.177 253.243 464.843 254.578 463.197 254.578H429.425C426.865 254.578 424.789 252.502 424.789 249.942V233.006C411.858 248.721 392.856 258.515 367.641 258.515C315.15 258.515 278.04 225.179 278.08 166.386C278.12 107.593 316.161 74.2569 367.641 74.2568C392.86 74.2568 411.86 84.0459 424.789 99.7549V29.2705C424.789 26.9848 426.642 25.1319 428.928 25.1318H463.362ZM579.505 74.2422C631.922 74.2423 672.376 109.245 672.376 166.371C672.376 223.497 631.902 258.5 579.505 258.5C527.014 258.5 486.593 225.164 486.633 166.371C486.673 107.578 528.025 74.2422 579.505 74.2422ZM367.641 109.007C336.342 109.007 317.812 130.166 317.812 166.386C317.813 202.606 336.169 223.75 367.641 223.75C399.112 223.75 416.586 200.671 416.586 166.386C416.586 132.1 398.939 109.007 367.641 109.007ZM579.505 109.244C548.206 109.244 527.249 130.151 527.249 166.371C527.249 202.591 548.033 223.497 579.505 223.497C610.976 223.497 631.761 200.656 631.761 166.371C631.761 132.086 610.803 109.244 579.505 109.244ZM188.39 139.566C187.495 139.516 186.662 139.575 185.989 139.651C184.647 139.804 183.247 140.116 181.98 140.449C179.411 141.124 176.475 142.131 173.828 143.108C171.141 144.101 168.571 145.131 166.686 145.908C165.74 146.298 164.957 146.628 164.408 146.861C164.134 146.978 163.917 147.071 163.767 147.136C163.692 147.168 163.633 147.194 163.592 147.212C163.572 147.221 163.554 147.227 163.543 147.232C163.538 147.235 163.534 147.237 163.53 147.238L163.525 147.241H163.522C159.504 148.99 157.665 153.665 159.413 157.684C161.107 161.576 165.547 163.426 169.477 161.948L169.854 161.794C169.854 161.794 169.858 161.792 169.861 161.791C169.868 161.788 169.879 161.783 169.895 161.776C169.926 161.763 169.975 161.742 170.04 161.714C170.134 161.673 170.263 161.618 170.423 161.55C165.675 169.462 160.471 174.427 155.417 177.46C149.469 181.029 143.215 182.236 137.136 181.926C130.982 181.611 125.02 179.732 120.018 177.149C114.911 174.513 111.386 171.451 109.771 169.319C106.872 165.493 101.42 164.741 97.5938 167.64C93.7684 170.538 93.0165 175.989 95.9141 179.814C99.5036 184.553 105.32 189.123 112.045 192.595C118.874 196.12 127.236 198.826 136.249 199.286C145.338 199.75 155.098 197.922 164.361 192.362C172.271 187.615 179.437 180.375 185.464 170.259L185.476 170.394L185.521 170.798C186.079 174.959 189.809 177.995 194.04 177.645C198.407 177.282 201.654 173.446 201.292 169.079L201.271 168.836C201.258 168.689 201.24 168.478 201.215 168.212C201.165 167.68 201.09 166.922 200.99 166.005C200.792 164.178 200.49 161.676 200.079 159.019C199.672 156.389 199.135 153.459 198.446 150.823C197.859 148.577 196.847 145.209 194.929 142.756C194.175 141.793 193.208 141.017 192.104 140.488L191.825 140.359C190.431 139.75 189.147 139.609 188.39 139.566ZM78.6611 122.43C69.9018 122.43 62.8009 129.468 62.8008 138.151C62.8008 146.834 69.9017 153.874 78.6611 153.874C87.4208 153.874 94.5225 146.835 94.5225 138.151C94.5223 129.468 87.4207 122.43 78.6611 122.43Z" fill="#00495D"/>
</svg>