<svg width="267" height="263" viewBox="0 0 267 263" fill="none" xmlns="http://www.w3.org/2000/svg">
<path d="M133.294 0C136.726 7.23436e-06 140.114 0.771113 143.203 2.25391C146.292 3.73669 149.002 5.89342 151.131 8.5625C206.894 78.4781 230.132 118.795 263.402 201.597C266.706 209.823 267.461 218.84 265.568 227.493C263.676 236.147 259.223 244.045 252.778 250.177C246.334 256.308 238.191 260.395 229.391 261.915C220.591 263.435 211.533 262.319 203.376 258.71L142.639 231.826C136.409 229.069 130.179 229.069 123.949 231.826L63.212 258.71C55.0551 262.319 45.9974 263.435 37.1973 261.915C28.3973 260.395 20.2541 256.308 13.8096 250.177C7.3652 244.045 2.91222 236.147 1.01959 227.493C-0.872954 218.84 -0.11934 209.823 3.18463 201.597C36.455 118.795 59.6929 78.4778 115.456 8.5625C117.585 5.89336 120.296 3.73671 123.385 2.25391C126.474 0.771106 129.862 0 133.294 0ZM188.39 139.566C187.495 139.516 186.662 139.575 185.989 139.651C184.647 139.804 183.247 140.116 181.981 140.449C179.411 141.124 176.475 142.131 173.828 143.108C171.141 144.101 168.571 145.131 166.686 145.908C165.74 146.298 164.957 146.628 164.408 146.861C164.134 146.978 163.917 147.071 163.767 147.136C163.692 147.168 163.633 147.194 163.592 147.212C163.572 147.221 163.554 147.227 163.543 147.232C163.538 147.235 163.534 147.237 163.53 147.238L163.525 147.241H163.523C159.504 148.99 157.665 153.665 159.413 157.684C161.107 161.576 165.547 163.426 169.477 161.948L169.855 161.794C169.855 161.794 169.858 161.792 169.861 161.791C169.868 161.788 169.879 161.783 169.895 161.776C169.926 161.763 169.975 161.742 170.04 161.714C170.134 161.673 170.263 161.618 170.423 161.55C165.676 169.462 160.471 174.427 155.417 177.46C149.469 181.029 143.215 182.236 137.136 181.926C130.982 181.611 125.021 179.732 120.018 177.149C114.911 174.513 111.386 171.451 109.771 169.319C106.872 165.493 101.42 164.741 97.5938 167.64C93.7684 170.538 93.0165 175.989 95.9141 179.814C99.5037 184.553 105.32 189.123 112.045 192.595C118.874 196.12 127.236 198.826 136.249 199.286C145.338 199.75 155.098 197.922 164.361 192.362C172.271 187.615 179.437 180.375 185.464 170.259L185.476 170.394L185.521 170.798C186.079 174.959 189.809 177.995 194.04 177.645C198.407 177.282 201.654 173.446 201.292 169.079L201.272 168.836C201.259 168.689 201.24 168.478 201.215 168.212C201.165 167.68 201.09 166.922 200.99 166.005C200.792 164.178 200.49 161.676 200.079 159.019C199.673 156.389 199.135 153.459 198.446 150.823C197.859 148.577 196.847 145.209 194.929 142.756C194.175 141.793 193.208 141.017 192.105 140.488L191.825 140.359C190.431 139.75 189.147 139.609 188.39 139.566ZM78.6612 122.43C69.9018 122.43 62.801 129.468 62.8008 138.151C62.8008 146.834 69.9017 153.874 78.6612 153.874C87.4208 153.874 94.5225 146.835 94.5225 138.151C94.5224 129.468 87.4208 122.43 78.6612 122.43Z" fill="#00495D"/>
</svg>